<svg version="1.0" xmlns="http://www.w3.org/2000/svg" width="512.000000pt" height="512.000000pt" viewBox="0 0 512.000000 512.000000" preserveAspectRatio="xMidYMid meet" style="width: 416.353px; height: auto;"> <rect x="0" y="0" width="512" height="512" rx="96" ry="96" fill="#ffffff"/> <g transform="translate(0.000000,512.000000) scale(0.100000,-0.100000)" fill="#000000" stroke="none"> <path d="M3000 5064 c-331 -36 -433 -54 -620 -109 -102 -29 -212 -61 -245 -71 -83 -24 -359 -166 -486 -251 -444 -298 -817 -735 -973 -1138 -146 -380 -141 -796 14 -1148 194 -441 611 -816 1114 -1002 191 -70 544 -145 688 -145 120 0 113 -16 -118 -262 -190 -202 -338 -388 -390 -490 -28 -55 -31 -104 -8 -129 9 -10 98 -50 197 -90 100 -39 199 -83 219 -95 21 -13 49 -24 63 -24 53 0 13 -17 -67 -29 -63 -9 -109 -10 -187 -2 -95 10 -136 9 -100 -3 145 -47 288 -48 402 -1 14 6 17 1 17 -34 0 -38 2 -41 28 -41 l29 0 9 407 c5 225 9 479 9 566 0 86 2 157 5 157 3 -1 23 -26 45 -57 257 -362 653 -863 682 -863 7 0 35 30 63 67 68 90 243 302 251 302 3 1 4 -12 1 -28 -3 -23 2 -33 22 -46 25 -17 26 -19 10 -36 -15 -17 -15 -20 -1 -43 10 -14 40 -33 74 -46 70 -26 236 -29 356 -5 43 8 81 15 83 15 3 0 -2 -13 -11 -30 -35 -68 -191 -99 -340 -66 -83 18 -128 42 -120 65 5 17 0 19 -57 17 -60 -1 -63 -2 -66 -28 -4 -31 22 -58 82 -86 150 -71 289 -82 353 -28 15 13 42 26 58 30 60 15 96 39 116 78 11 21 17 43 14 48 -3 4 8 18 24 29 36 26 61 78 61 129 0 32 -6 45 -26 61 -15 12 -34 21 -43 21 -9 0 -23 15 -31 32 -8 18 -29 41 -47 51 -37 21 -205 42 -271 33 -49 -7 -50 -12 21 86 58 80 130 220 153 297 22 70 24 204 5 249 -34 80 -89 60 -149 -55 -43 -85 -129 -340 -157 -468 -9 -44 -21 -89 -25 -100 -5 -11 -61 -81 -125 -155 -65 -74 -154 -182 -199 -239 l-81 -103 -33 38 c-84 96 -692 875 -692 887 0 2 96 7 213 10 400 11 697 83 1012 243 451 229 767 560 904 949 73 205 96 367 88 617 -8 242 -38 408 -119 658 -146 449 -404 850 -718 1114 -162 137 -211 161 -510 247 -136 39 -154 42 -290 44 -80 2 -161 1 -180 -1z m265 -59 c103 -18 125 -25 232 -71 285 -122 547 -345 767 -650 l36 -52 -55 -31 c-114 -65 -236 -103 -407 -130 l-118 -18 0 23 c0 12 -4 26 -10 29 -14 9 -12 -14 5 -71 19 -64 19 -83 -5 -138 -17 -41 -18 -49 -5 -80 12 -29 12 -35 1 -39 -15 -6 -22 -55 -30 -207 -6 -108 11 -344 40 -575 14 -110 28 -275 31 -367 l6 -168 -40 -39 c-40 -40 -76 -54 -182 -72 -110 -17 -161 -31 -161 -41 0 -7 23 -9 71 -4 168 15 280 61 314 127 28 52 24 273 -9 524 -14 116 -29 221 -32 234 -4 20 -2 23 18 18 13 -4 61 -9 108 -12 108 -6 63 12 -52 21 -74 7 -78 8 -78 31 0 24 1 25 85 22 46 -2 87 0 90 3 6 5 -33 11 -150 20 -23 2 -31 8 -33 27 -3 21 -1 23 21 17 32 -8 156 -26 182 -26 12 0 16 3 9 10 -5 5 -56 15 -112 22 -81 9 -102 15 -102 27 0 14 17 16 115 15 63 0 115 3 115 8 0 4 -51 8 -114 8 l-114 0 -4 60 -3 59 54 7 c32 4 89 1 140 -7 124 -20 187 -17 241 11 102 52 160 109 179 178 13 43 -11 32 -28 -13 -24 -69 -164 -163 -246 -167 -22 -1 -82 4 -133 11 -52 7 -119 10 -149 6 l-56 -6 6 107 c3 58 8 109 11 112 3 3 21 -3 40 -13 23 -13 36 -28 40 -48 8 -37 57 -84 104 -97 86 -23 145 -7 192 53 35 44 17 42 -27 -3 -35 -34 -47 -40 -84 -40 -86 0 -152 36 -173 94 -6 17 -2 18 41 12 27 -3 81 -9 122 -12 l74 -7 -27 -24 c-15 -12 -38 -23 -52 -23 -30 0 -80 24 -87 42 -4 8 -6 7 -6 -4 -1 -21 34 -46 75 -54 38 -7 90 17 99 46 5 15 15 20 39 20 47 0 128 17 172 35 59 24 34 27 -51 5 -87 -22 -192 -26 -312 -10 -109 15 -163 36 -163 64 0 12 -5 27 -11 33 -7 7 16 12 78 17 189 14 480 76 498 106 9 15 -18 12 -60 -6 -90 -37 -515 -103 -515 -79 0 2 7 23 16 45 15 38 15 66 -1 118 -7 21 -5 22 54 22 129 0 337 61 447 130 38 24 70 38 75 33 5 -5 4 -24 -1 -43 -13 -49 -29 -183 -22 -194 9 -16 20 29 27 115 4 46 10 88 12 92 8 14 163 -282 214 -411 225 -561 238 -1095 37 -1497 -127 -253 -316 -460 -580 -635 -402 -266 -853 -386 -1373 -366 -550 22 -998 177 -1366 474 -121 98 -281 272 -364 395 -180 271 -253 524 -242 837 4 95 13 190 25 245 77 357 283 698 628 1036 142 138 292 258 412 328 95 55 498 257 552 276 25 9 56 19 70 22 14 3 61 16 105 29 119 35 282 72 382 88 119 19 339 19 438 1z m215 -21 c0 -2 -7 -4 -15 -4 -8 0 -15 4 -15 10 0 5 7 7 15 4 8 -4 15 -8 15 -10z m165 -48 c6 -2 18 -6 27 -10 9 -4 23 -9 31 -10 25 -3 147 -68 147 -78 0 -5 5 -6 10 -3 6 3 10 2 10 -4 0 -5 15 -18 33 -30 17 -11 52 -40 77 -65 25 -25 51 -46 59 -46 8 0 12 -3 9 -6 -5 -5 27 -41 171 -193 19 -20 34 -38 34 -41 -1 -3 3 -4 8 -3 4 2 6 -4 3 -12 -4 -8 1 -18 10 -21 9 -4 24 -21 33 -38 9 -17 26 -42 39 -55 13 -13 24 -30 24 -38 0 -8 4 -11 10 -8 6 3 7 -1 4 -9 -3 -9 -2 -16 3 -16 5 0 17 -15 27 -32 19 -37 30 -55 69 -115 15 -24 27 -47 27 -53 0 -6 4 -18 10 -28 28 -51 110 -234 110 -246 0 -8 4 -17 10 -21 5 -3 7 -12 4 -20 -3 -7 2 -25 11 -39 9 -14 17 -29 17 -33 1 -11 7 -30 23 -77 8 -21 12 -42 10 -47 -3 -4 4 -30 15 -58 11 -28 17 -57 14 -66 -4 -8 -1 -15 5 -15 6 0 9 -10 7 -22 -2 -13 1 -32 6 -42 6 -10 12 -40 14 -65 1 -25 6 -64 10 -86 3 -22 6 -139 7 -260 0 -253 -15 -347 -89 -559 -21 -58 -103 -225 -104 -211 -1 6 -5 0 -10 -13 -5 -12 -8 -23 -7 -25 1 -1 -10 -16 -26 -32 -15 -17 -25 -36 -22 -43 3 -7 0 -10 -5 -7 -6 3 -10 2 -10 -3 0 -15 -41 -53 -50 -47 -6 3 -7 0 -5 -7 9 -22 -120 -163 -204 -225 -22 -16 -38 -33 -34 -36 3 -4 0 -7 -8 -7 -8 0 -22 -8 -31 -17 -22 -23 -51 -48 -58 -48 -15 -2 -69 -43 -63 -48 3 -4 -3 -7 -15 -7 -11 0 -25 -6 -29 -14 -8 -14 -12 -16 -34 -16 -5 0 -7 -4 -4 -10 3 -5 0 -10 -7 -10 -23 0 -88 -37 -80 -45 4 -5 2 -5 -5 -2 -6 4 -17 1 -25 -6 -13 -13 -45 -28 -52 -24 -2 1 -13 -6 -23 -16 -11 -9 -23 -14 -26 -10 -4 3 -7 1 -7 -6 0 -7 -4 -9 -10 -6 -5 3 -10 2 -10 -3 0 -5 -6 -9 -12 -10 -24 -1 -88 -28 -83 -34 3 -3 -7 -6 -22 -6 -15 1 -29 -5 -31 -11 -2 -6 -8 -8 -13 -5 -6 3 -21 -2 -34 -10 -14 -9 -25 -14 -25 -10 0 4 -6 2 -12 -3 -7 -5 -25 -9 -40 -8 -15 0 -25 -2 -23 -6 4 -6 -45 -21 -110 -34 -31 -5 -43 -8 -135 -27 -30 -6 -64 -11 -75 -10 -11 1 -36 -3 -55 -8 -40 -11 -290 -23 -425 -21 -49 1 -103 2 -118 2 -15 0 -25 4 -22 9 3 5 -17 10 -47 10 -105 3 -136 5 -132 11 2 4 -14 9 -35 11 -22 2 -37 0 -35 -4 3 -5 0 -8 -5 -8 -6 0 -11 5 -11 11 0 6 -7 9 -15 6 -8 -4 -17 -2 -20 3 -3 5 -16 10 -28 10 -12 0 -38 2 -57 6 -19 3 -43 6 -52 7 -9 1 -14 5 -12 9 3 4 -5 9 -18 9 -13 1 -27 2 -33 4 -5 1 -20 3 -33 3 -14 1 -21 6 -16 13 4 7 1 10 -7 7 -7 -2 -47 9 -89 25 -41 15 -82 29 -90 30 -8 1 -18 5 -21 10 -3 4 -16 9 -28 12 -13 2 -29 9 -35 15 -7 5 -17 6 -21 2 -5 -4 -4 -1 0 7 6 11 4 13 -8 8 -10 -4 -17 -1 -17 5 0 6 -3 8 -6 5 -4 -3 -18 2 -32 13 -13 11 -28 17 -33 14 -5 -3 -9 0 -9 6 0 6 -4 8 -10 5 -5 -3 -10 -2 -10 3 0 4 -15 15 -32 24 -27 13 -30 17 -16 23 11 4 24 1 33 -9 9 -9 21 -17 26 -17 5 -1 13 -2 19 -3 5 0 18 -9 29 -18 11 -9 22 -14 25 -11 3 4 6 1 6 -5 0 -12 38 -27 59 -23 7 1 10 -2 7 -7 -5 -8 49 -26 57 -19 1 1 15 -8 29 -19 16 -12 38 -20 53 -19 14 2 23 0 20 -5 -5 -8 136 -56 190 -64 43 -7 59 -11 70 -18 6 -3 33 -9 60 -13 28 -4 59 -9 70 -11 149 -28 213 -34 434 -41 135 -4 222 -1 285 8 50 7 106 12 124 12 17 0 32 3 32 6 0 4 10 7 23 7 75 1 108 5 102 14 -3 6 1 7 9 4 8 -3 39 2 68 12 29 10 61 17 72 15 11 -2 16 2 12 8 -5 7 2 11 15 11 31 0 161 42 177 57 7 7 23 13 34 13 11 0 53 15 92 34 39 19 81 37 94 41 12 3 20 11 16 16 -3 5 -2 8 3 7 14 -4 53 13 53 23 0 6 5 7 10 4 6 -3 10 -2 10 3 0 6 11 13 25 16 14 4 23 11 20 16 -3 6 3 10 13 10 11 0 26 7 33 16 7 9 22 20 34 25 35 17 70 39 61 39 -5 0 9 12 30 26 21 15 43 33 47 40 4 8 14 14 22 14 8 0 19 9 25 19 5 11 19 23 30 26 11 3 20 13 20 21 0 8 7 14 17 14 9 0 14 2 11 5 -3 4 26 38 66 78 67 68 133 147 122 147 -3 0 6 12 19 26 14 15 25 32 25 39 0 7 7 18 15 25 8 7 13 16 10 20 -3 4 2 14 11 21 14 12 65 102 64 114 0 3 6 18 14 33 26 50 86 256 97 332 17 127 22 295 10 413 -14 134 -19 174 -25 196 -3 9 -8 32 -11 51 -11 68 -17 96 -38 165 -26 86 -24 81 -26 106 -1 12 -5 17 -13 13 -7 -4 -8 -3 -4 4 4 7 -2 32 -13 57 -11 25 -17 45 -14 45 3 0 0 6 -6 14 -7 8 -14 22 -16 32 -12 57 -144 333 -170 354 -8 7 -12 16 -9 21 3 5 -2 12 -10 15 -9 3 -14 10 -11 14 2 4 -4 15 -15 25 -11 10 -20 24 -20 32 0 7 -4 13 -10 13 -5 0 -9 4 -7 8 5 19 -195 276 -207 265 -3 -4 -6 -1 -6 6 0 7 -42 53 -92 102 -124 120 -145 139 -151 132 -3 -2 -10 5 -17 16 -6 12 -17 21 -25 21 -8 0 -15 4 -15 10 0 5 -15 17 -32 26 -18 9 -36 22 -40 28 -4 6 -8 7 -8 3 0 -5 -14 3 -31 17 -17 14 -41 29 -55 32 -13 3 -24 10 -24 15 0 5 -3 8 -7 7 -5 -1 -28 9 -53 22 -25 13 -48 23 -52 22 -3 -1 -8 5 -11 13 -4 10 13 7 66 -12 40 -13 77 -26 82 -27z m-1445 -70 c0 -2 -9 -6 -20 -9 -11 -3 -18 -1 -14 4 5 9 34 13 34 5z m-70 -26 c-14 -11 -29 -20 -33 -20 -5 0 -20 -9 -34 -19 -13 -11 -31 -17 -40 -14 -11 4 -14 2 -9 -5 6 -11 0 -14 -20 -11 -4 0 -10 -3 -13 -8 -3 -6 -42 -27 -86 -48 -44 -20 -88 -45 -99 -54 -10 -9 -20 -15 -22 -13 -10 6 -35 1 -30 -7 5 -8 -46 -35 -59 -31 -4 1 -12 -6 -19 -16 -11 -14 -14 -15 -21 -3 -5 8 -5 11 0 7 5 -5 15 1 23 13 8 11 20 18 28 15 8 -3 14 1 14 9 0 8 5 15 11 15 6 0 30 13 53 28 23 16 54 32 69 35 14 4 32 13 39 20 26 24 52 42 45 30 -4 -6 18 4 49 22 32 19 72 38 91 41 19 4 30 10 26 17 -4 6 0 8 10 4 9 -3 19 -2 22 3 4 6 12 10 18 10 7 0 1 -9 -13 -20z m-505 -277 c-23 -16 -35 -17 -35 -2 0 5 4 8 9 5 5 -3 12 1 15 10 3 8 11 12 17 8 9 -5 6 -11 -6 -21z m-39 -25 c4 -7 3 -8 -4 -4 -7 4 -12 3 -12 -2 0 -15 -29 -22 -36 -9 -4 7 -4 9 1 5 4 -4 14 -1 22 7 17 18 20 18 29 3z m-50 -40 c4 -6 3 -8 -4 -4 -6 3 -13 2 -17 -4 -3 -5 -11 -10 -18 -10 -6 0 -2 7 9 15 23 18 21 17 30 3z m-66 -50 c-16 -18 -23 -19 -33 -9 -9 10 -9 11 4 6 10 -4 19 0 22 9 4 9 11 16 17 16 6 0 2 -10 -10 -22z m-46 -33 c-7 -18 -20 -19 -30 -3 -4 6 -3 8 4 4 6 -3 13 -2 17 4 9 15 15 12 9 -5z m-41 -38 c-12 -5 -24 -18 -26 -29 -3 -11 -10 -17 -16 -13 -6 3 -11 -1 -11 -11 0 -10 -2 -15 -5 -12 -11 11 -302 -300 -304 -325 -1 -8 -14 -26 -48 -63 -12 -13 -20 -24 -18 -24 3 0 -4 -9 -15 -20 -11 -11 -20 -27 -20 -36 0 -9 -5 -12 -12 -8 -8 5 -9 2 -5 -10 4 -9 3 -15 -1 -12 -4 2 -20 -18 -36 -45 -15 -27 -31 -47 -36 -44 -9 6 16 50 63 112 15 19 27 42 27 49 0 8 5 14 11 14 5 0 7 5 3 12 -4 6 -3 8 4 4 6 -3 13 3 17 14 3 11 13 20 22 20 11 0 14 6 10 21 -3 12 -3 18 0 15 4 -3 11 4 17 17 7 12 18 22 25 22 8 0 16 6 19 14 3 9 0 11 -9 6 -8 -5 -3 4 10 18 13 15 28 24 32 21 5 -3 9 2 9 11 0 10 5 13 12 9 7 -5 9 -2 5 8 -3 10 14 33 53 69 32 29 57 56 55 60 -3 3 7 11 21 18 14 6 22 16 19 21 -3 6 4 14 17 19 13 5 31 19 41 31 10 11 22 18 27 15 6 -3 10 1 10 10 0 8 7 18 15 21 8 4 12 10 9 15 -3 5 3 6 12 2 16 -6 16 -7 -3 -16z m-561 -690 c-7 -8 -8 -18 -4 -22 4 -5 2 -5 -5 -2 -7 5 -18 -10 -29 -38 -11 -29 -20 -42 -25 -34 -7 12 9 59 21 59 3 0 12 16 19 36 9 25 16 33 24 25 7 -7 7 -14 -1 -24z m-83 -181 c-9 -8 -10 -8 -4 3 6 10 4 12 -4 7 -7 -4 -10 -13 -8 -19 2 -7 0 -21 -6 -32 -6 -11 -12 -29 -14 -39 -2 -11 -8 -25 -14 -33 -6 -7 -9 -20 -5 -28 3 -9 2 -13 -4 -10 -5 3 -10 -4 -9 -17 0 -13 -10 -66 -22 -118 -29 -129 -33 -448 -5 -551 9 -37 18 -77 19 -90 0 -13 4 -26 8 -29 4 -3 1 -14 -7 -24 -14 -20 -14 -20 -15 0 -1 10 -1 25 0 32 1 8 -2 19 -7 25 -33 41 -52 412 -27 540 8 42 16 92 17 110 1 17 5 37 9 43 5 6 10 25 11 43 1 18 6 35 10 37 5 3 6 10 3 15 -4 5 0 21 8 36 28 55 38 79 40 101 0 12 4 22 8 22 4 0 10 15 15 33 l8 32 4 -39 c2 -22 -2 -43 -9 -50z m-26 -1078 c10 -32 22 -58 27 -58 5 0 7 -7 4 -15 -4 -8 -1 -15 6 -15 6 0 10 -6 7 -12 -2 -7 9 -33 26 -57 16 -24 31 -53 32 -65 4 -37 5 -39 11 -33 7 7 54 -46 54 -60 0 -5 13 -23 30 -41 16 -18 30 -36 30 -40 1 -4 21 -30 46 -57 24 -28 51 -61 60 -73 8 -12 20 -19 26 -16 7 4 8 2 4 -4 -4 -7 -2 -12 3 -12 6 0 11 -7 11 -15 0 -17 -2 -18 -24 -9 -9 3 -16 11 -16 18 0 6 -20 29 -45 51 -25 22 -45 46 -45 53 0 6 -4 12 -8 12 -5 0 -15 11 -22 25 -7 13 -18 21 -24 18 -6 -3 -8 -3 -4 2 4 4 -10 31 -30 59 -36 51 -54 79 -77 123 -7 13 -15 19 -19 15 -4 -4 -7 -2 -5 3 3 15 -9 48 -44 110 -15 27 -32 67 -36 87 -1 4 -8 23 -16 42 -8 18 -12 36 -8 39 10 11 28 -18 46 -75z m422 -608 c8 0 15 -6 15 -13 0 -8 11 -19 25 -25 14 -7 28 -19 31 -27 4 -8 10 -12 15 -9 5 3 9 -2 9 -11 0 -10 5 -13 12 -9 7 4 8 3 4 -4 -4 -7 -1 -12 6 -12 7 0 30 -15 51 -33 65 -56 101 -82 93 -67 -5 8 1 5 13 -7 12 -13 28 -23 36 -23 8 0 15 -5 15 -11 0 -5 6 -7 13 -3 6 4 4 -2 -6 -12 -17 -18 -19 -18 -31 -1 -7 9 -18 17 -24 17 -6 0 -24 11 -40 25 -16 13 -33 21 -37 17 -5 -4 -5 -1 -1 5 5 8 -3 17 -21 25 -15 7 -43 28 -63 47 -19 18 -51 45 -72 59 -21 13 -38 28 -38 32 0 4 -9 10 -20 13 -11 3 -19 11 -18 19 2 7 -3 12 -11 10 -12 -3 -12 -1 -1 13 12 15 14 15 22 1 5 -9 16 -16 23 -16z m2903 -524 c9 -141 -48 -279 -197 -479 -55 -74 -67 -84 -73 -68 -7 20 3 59 60 241 69 219 107 314 149 368 23 31 27 32 41 18 10 -10 18 -39 20 -80z m-1472 -203 c-6 -22 -34 -539 -41 -783 l-6 -174 -37 3 c-20 1 -49 12 -65 23 -15 11 -114 55 -219 97 -105 42 -196 84 -201 93 -29 44 115 247 392 554 74 82 141 161 150 176 18 31 35 38 27 11z m1204 -383 c0 -5 -9 -12 -20 -15 -11 -4 -18 -10 -15 -15 3 -5 0 -12 -6 -16 -8 -4 -9 -3 -5 4 4 7 1 12 -6 12 -8 1 -4 8 9 19 12 10 19 22 15 25 -3 4 1 4 11 0 9 -3 17 -10 17 -14z m342 -23 c39 -17 54 -33 63 -69 15 -61 -103 -121 -260 -134 -112 -10 -235 31 -235 76 0 26 73 105 119 131 32 17 50 19 158 15 69 -3 137 -12 155 -19z m-412 -40 c0 -12 -41 -49 -48 -42 -4 4 -1 10 6 12 6 3 9 10 6 15 -4 7 -2 8 4 4 7 -4 12 -2 12 3 0 6 5 11 10 11 6 0 10 -2 10 -3z m548 -53 c27 -18 30 -70 6 -115 -21 -42 -79 -65 -210 -85 -155 -23 -280 -10 -336 36 -17 14 -20 21 -12 30 9 9 30 8 89 -5 67 -15 90 -16 161 -6 155 22 264 79 264 138 0 27 8 29 38 7z m-554 -258 c11 -46 164 -94 267 -84 40 4 52 -5 23 -16 -73 -28 -297 28 -359 90 -20 20 -6 34 36 34 20 0 28 -6 33 -24z m-1146 -220 c-7 -8 -17 -12 -22 -9 -4 3 -2 9 5 14 22 13 31 11 17 -5z" class=""></path> <path d="M2015 4488 c-47 -18 -252 -157 -280 -190 -14 -17 -35 -48 -46 -69 l-19 -39 27 0 c16 0 41 7 57 15 52 28 119 46 145 40 21 -4 26 -12 27 -38 1 -39 36 -157 41 -141 2 6 -5 45 -16 85 -11 41 -18 75 -17 76 2 2 16 -1 32 -6 16 -5 117 -12 224 -15 124 -3 217 -11 255 -21 125 -31 528 -66 795 -68 l175 -2 72 35 c40 19 72 37 73 40 0 3 -19 6 -43 6 -58 2 -139 41 -220 106 l-69 55 -141 6 c-155 7 -436 50 -587 90 -71 18 -133 27 -245 31 -82 4 -163 9 -180 11 -16 2 -43 -1 -60 -7z m220 -27 c126 -7 184 -15 275 -39 145 -38 418 -79 580 -87 132 -7 147 -12 205 -67 35 -34 143 -88 175 -88 35 0 14 -16 -47 -35 -53 -17 -74 -17 -288 -6 -293 15 -549 38 -645 58 -131 28 -172 32 -332 32 -133 1 -168 4 -218 22 -67 23 -93 21 -179 -17 -30 -14 -55 -23 -57 -22 -1 2 13 24 31 50 30 41 175 147 265 195 29 15 23 15 235 4z"></path> <path d="M1855 4205 c12 -57 37 -136 41 -132 7 6 -25 127 -38 147 -6 11 -7 6 -3 -15z"></path> <path d="M1800 4191 c0 -31 30 -163 42 -181 7 -11 8 -7 3 13 -7 35 8 35 135 1 52 -14 106 -28 120 -31 13 -3 81 -26 150 -51 317 -112 379 -125 698 -137 89 -3 169 -8 176 -11 8 -3 17 -1 20 5 9 14 -31 19 -204 26 -312 12 -394 27 -615 109 -151 56 -353 114 -430 124 l-59 7 -13 69 c-13 71 -23 96 -23 57z"></path> <path d="M1990 4195 c0 -19 44 -145 51 -145 8 0 -33 136 -44 147 -4 3 -7 3 -7 -2z"></path> <path d="M1725 4160 c18 -60 74 -193 74 -178 1 22 -57 180 -71 193 -7 7 -8 2 -3 -15z"></path> <path d="M3254 3974 c-14 -26 -37 -49 -72 -69 -48 -28 -64 -45 -43 -45 5 0 30 15 57 33 48 32 89 87 82 109 -2 6 -13 -6 -24 -28z"></path> <path d="M1860 3911 c0 -5 13 -12 29 -16 24 -5 31 -14 42 -53 7 -26 30 -84 51 -128 21 -45 38 -85 38 -88 0 -3 -9 -6 -19 -6 -11 0 -23 -5 -26 -11 -12 -19 3 -21 35 -6 28 15 38 14 123 -4 51 -11 115 -27 142 -35 97 -29 201 -35 380 -23 126 9 197 10 275 1 98 -10 106 -9 121 8 31 36 -2 157 -56 202 -30 25 -31 13 -2 -22 29 -34 47 -87 47 -138 l0 -33 -107 7 c-60 4 -115 7 -123 7 -8 -1 -105 -5 -215 -9 l-200 -7 -120 31 c-66 16 -139 33 -163 37 -24 4 -54 17 -67 28 -23 21 -86 152 -100 207 l-6 25 153 3 c137 2 156 1 184 -17 24 -15 32 -28 37 -60 6 -48 34 -86 89 -124 77 -52 200 -67 268 -34 43 21 105 75 96 84 -3 4 -19 -5 -34 -19 -45 -43 -93 -62 -152 -62 -112 0 -224 63 -248 140 -6 21 -9 40 -7 42 8 8 80 -27 77 -38 -9 -39 78 -110 137 -110 27 0 91 32 74 37 -7 2 -21 -1 -33 -7 -32 -17 -95 -3 -130 30 -38 36 -39 54 -2 46 232 -51 472 -61 509 -22 17 18 17 18 -12 10 -16 -5 -88 -9 -160 -8 -197 0 -362 36 -483 105 l-54 30 -157 -3 c-86 -2 -173 1 -193 5 -23 5 -38 4 -38 -2z"></path> <path d="M1878 3783 c-21 -2 -38 -9 -38 -15 0 -13 78 -4 93 11 8 8 7 11 -3 9 -8 -1 -32 -3 -52 -5z"></path> <path d="M3441 3754 c40 -40 140 -42 199 -5 27 18 5 20 -40 5 -51 -18 -113 -13 -139 10 -30 28 -48 19 -20 -10z"></path> <path d="M1940 3681 c-15 -4 -20 -10 -13 -14 13 -8 43 1 43 14 0 5 -1 9 -2 8 -2 -1 -14 -4 -28 -8z"></path> <path d="M4195 3671 c-3 -5 -2 -12 3 -15 5 -3 9 1 9 9 0 17 -3 19 -12 6z"></path> <path d="M3480 3131 c0 -161 4 -251 10 -251 6 0 10 88 10 244 0 153 -4 247 -10 251 -7 4 -10 -80 -10 -244z"></path> <path d="M3540 3078 c0 -112 -3 -221 -6 -243 -4 -27 -2 -35 4 -25 15 23 27 470 13 470 -8 0 -11 -61 -11 -202z"></path> <path d="M3607 3081 c-4 -107 -5 -196 -2 -199 13 -14 15 19 13 199 l-3 194 -8 -194z"></path> <path d="M2484 3220 c-49 -7 -324 -70 -409 -93 -86 -23 3 -17 110 8 206 48 340 75 373 75 20 0 31 4 27 10 -7 11 -26 11 -101 0z"></path> <path d="M1466 3115 c7 -67 47 -197 85 -279 44 -94 49 -74 6 26 -19 46 -44 117 -55 158 -12 41 -25 91 -31 110 -10 33 -10 32 -5 -15z"></path> <path d="M1426 2989 c6 -8 21 -39 32 -69 30 -82 82 -194 87 -188 8 8 -103 262 -117 267 -10 3 -10 1 -2 -10z"></path> <path d="M1398 2865 c-6 -6 54 -136 99 -213 49 -83 33 -33 -29 92 -35 70 -66 124 -70 121z"></path> <path d="M2722 2794 c-113 -103 -127 -147 -66 -214 38 -42 101 -86 110 -77 3 3 -25 34 -62 69 -60 57 -66 67 -60 92 4 15 37 57 74 94 77 76 98 102 85 102 -5 0 -41 -30 -81 -66z"></path> <path d="M2770 2766 c0 -2 8 -10 18 -17 15 -13 16 -12 3 4 -13 16 -21 21 -21 13z"></path> <path d="M1390 2704 c0 -11 95 -143 104 -144 5 0 1 10 -8 23 -8 12 -30 45 -48 74 -29 46 -48 65 -48 47z"></path> <path d="M1861 2530 c-105 -36 -132 -56 -147 -106 -17 -58 -37 -508 -26 -569 l10 -50 1 60 c3 138 32 546 41 569 11 29 38 44 132 75 36 12 72 29 78 37 16 19 9 18 -89 -16z"></path> <path d="M2887 2493 c-4 -6 29 -13 82 -16 118 -9 179 -33 279 -112 45 -36 82 -61 82 -56 0 20 -137 135 -189 159 -43 20 -76 26 -152 30 -57 3 -99 1 -102 -5z"></path> <path d="M3326 2388 c3 -5 10 -6 15 -3 13 9 11 12 -6 12 -8 0 -12 -4 -9 -9z"></path> <path d="M3236 2150 c-4 -30 -17 -88 -28 -128 -22 -83 -19 -105 5 -40 27 71 39 132 35 178 l-3 45 -9 -55z"></path> <path d="M3840 2092 c0 -35 -7 -79 -15 -99 -19 -45 -13 -54 11 -17 22 32 32 150 15 167 -8 8 -11 -5 -11 -51z"></path> <path d="M2010 2056 c0 -32 81 -98 191 -155 57 -30 131 -73 164 -96 88 -62 133 -82 237 -106 83 -19 126 -21 393 -23 269 -1 306 1 355 18 30 10 65 27 76 38 12 11 30 18 39 16 10 -2 20 3 23 11 4 11 -3 13 -34 8 -21 -4 -90 1 -153 9 -91 12 -164 14 -341 9 -236 -6 -400 3 -505 30 -65 17 -306 130 -367 172 -21 14 -47 40 -58 57 -15 24 -20 27 -20 12z m490 -277 c40 -10 144 -14 380 -15 179 -1 372 -6 430 -11 94 -7 103 -10 82 -21 -50 -28 -157 -42 -332 -41 -338 0 -494 20 -610 79 -78 40 -109 66 -50 41 25 -10 70 -25 100 -32z"></path> <path d="M2552 1558 c3 -7 38 -31 79 -53 l74 -40 150 3 c248 5 275 5 400 -2 137 -9 174 2 208 62 28 48 12 52 -27 6 -30 -35 -39 -39 -92 -44 -33 -3 -97 -1 -144 3 -47 5 -130 5 -185 1 -55 -4 -145 -8 -200 -8 -89 0 -107 3 -162 28 -35 16 -68 35 -74 42 -14 17 -32 18 -27 2z"></path> <path d="M3050 1410 c0 -12 -7 -34 -15 -50 -8 -16 -11 -31 -6 -34 5 -3 16 12 25 34 18 46 20 70 6 70 -5 0 -10 -9 -10 -20z"></path> <path d="M641 2614 c0 -11 3 -14 6 -6 3 7 2 16 -1 19 -3 4 -6 -2 -5 -13z"></path> <path d="M2356 822 c-3 -5 1 -9 9 -9 8 0 12 4 9 9 -3 4 -7 8 -9 8 -2 0 -6 -4 -9 -8z"></path> <path d="M1765 4771 c-3 -5 -2 -12 3 -15 5 -3 9 1 9 9 0 17 -3 19 -12 6z"></path> <path d="M4135 4711 c-3 -5 -2 -12 3 -15 5 -3 9 1 9 9 0 17 -3 19 -12 6z"></path> <path d="M800 2031 c0 -6 4 -13 10 -16 6 -3 7 1 4 9 -7 18 -14 21 -14 7z"></path> <path d="M4455 1861 c-3 -5 -2 -12 3 -15 5 -3 9 1 9 9 0 17 -3 19 -12 6z"></path> <path d="M3085 631 c-3 -5 -2 -12 3 -15 5 -3 9 1 9 9 0 17 -3 19 -12 6z"></path> <path d="M3176 517 c3 -10 9 -15 12 -12 3 3 0 11 -7 18 -10 9 -11 8 -5 -6z"></path> </g> </svg>