<?xml version="1.0" standalone="no"?>
<!DOCTYPE svg PUBLIC "-//W3C//DTD SVG 20010904//EN"
 "http://www.w3.org/TR/2001/REC-SVG-20010904/DTD/svg10.dtd">
<svg version="1.0" xmlns="http://www.w3.org/2000/svg"
 width="256pt" height="256pt" viewBox="0 0 256 256"
 preserveAspectRatio="xMidYMid meet">

<g transform="translate(0.000000,256.000000) scale(0.100000,-0.100000)"
fill="#000000" stroke="none">
<path d="M1460 2529 c-185 -19 -357 -66 -495 -133 -313 -154 -585 -461 -655
-740 -24 -97 -27 -271 -5 -363 45 -193 188 -383 384 -512 147 -96 300 -150
493 -174 l98 -11 -5 -121 c-2 -66 -7 -185 -11 -263 -8 -167 5 -157 -134 -97
-47 20 -95 40 -107 45 -49 20 -17 79 142 259 116 132 139 175 33 63 -146 -155
-222 -262 -216 -304 2 -18 17 -28 63 -46 106 -42 175 -75 175 -83 0 -5 -35 -9
-77 -9 -54 0 -73 -3 -63 -10 19 -12 105 -13 148 -1 28 9 32 7 32 -10 0 -10 7
-19 15 -19 13 0 15 24 16 148 1 81 4 206 8 279 l6 131 117 -157 c65 -86 146
-190 180 -231 l62 -73 25 33 c14 19 48 61 75 93 46 56 49 58 62 39 8 -11 11
-27 8 -36 -4 -10 5 -20 27 -32 27 -14 51 -16 130 -11 79 4 97 2 93 -8 -18 -45
-224 -44 -224 0 0 10 -10 15 -28 15 -90 0 -6 -75 98 -87 33 -4 57 -1 76 10 16
8 41 20 57 26 15 6 33 23 40 38 6 15 20 36 30 45 24 25 22 74 -3 88 -11 6 -31
22 -44 35 -22 22 -34 25 -91 25 -36 0 -65 3 -65 8 0 4 9 21 21 37 70 104 106
225 80 273 -35 65 -92 -26 -144 -227 -21 -81 -29 -95 -87 -162 -35 -41 -79
-96 -99 -122 l-36 -49 -38 43 c-49 55 -319 406 -318 414 1 3 48 8 106 11 276
13 503 95 698 251 128 103 231 258 272 408 25 92 30 272 11 382 -68 390 -321
763 -573 847 -169 56 -209 60 -363 45z m254 -47 c364 -131 665 -631 643 -1067
-10 -190 -75 -332 -217 -476 -130 -131 -279 -213 -490 -272 -64 -17 -105 -21
-275 -21 -212 -1 -278 7 -415 51 -306 98 -554 343 -616 608 -23 98 -15 294 16
385 29 89 91 201 155 286 74 96 229 244 312 297 128 83 309 164 438 196 164
41 157 40 280 37 82 -2 125 -9 169 -24z m304 -1847 c3 -39 -3 -62 -32 -119
-36 -74 -90 -145 -100 -135 -7 7 65 232 89 278 22 44 39 34 43 -24z m53 -303
c50 -41 -17 -86 -127 -87 -68 0 -104 13 -104 37 0 5 13 23 29 39 27 27 35 29
104 29 58 0 80 -4 98 -18z m64 -43 c13 -20 -16 -67 -48 -78 -52 -19 -161 -25
-200 -12 -57 19 -45 33 22 25 75 -8 164 16 187 51 18 27 29 31 39 14z m-279
-130 c12 -11 41 -23 63 -26 23 -3 44 -10 48 -16 8 -14 -62 0 -114 23 -24 10
-43 24 -43 29 0 18 22 13 46 -10z"/>
<path d="M939 2202 c-44 -29 -79 -60 -87 -77 -7 -15 -11 -29 -9 -31 2 -3 21 3
43 12 32 14 47 14 87 5 27 -6 88 -11 135 -11 48 0 105 -5 127 -10 22 -5 81
-12 130 -14 l90 -5 -85 9 c-47 6 -107 14 -133 20 -26 5 -86 10 -132 10 -47 0
-105 5 -130 12 -35 10 -52 10 -77 0 -66 -25 -43 10 46 71 l60 40 91 -2 c49 -1
117 -9 150 -17 91 -24 223 -44 290 -44 53 0 67 -4 119 -40 32 -22 66 -40 75
-40 26 0 -9 -19 -39 -21 -23 -2 -23 -2 -3 -6 21 -4 98 28 78 33 -5 1 -22 5
-36 8 -14 3 -46 21 -72 41 -39 30 -54 35 -99 35 -58 0 -210 23 -298 44 -30 8
-98 17 -151 20 l-96 6 -74 -48z"/>
<path d="M2060 2070 c-8 -5 -10 -10 -5 -10 6 0 17 5 25 10 8 5 11 10 5 10 -5
0 -17 -5 -25 -10z"/>
<path d="M2152 2055 c0 -16 2 -22 5 -12 2 9 2 23 0 30 -3 6 -5 -1 -5 -18z"/>
<path d="M1503 2063 c26 -2 67 -2 90 0 23 2 2 3 -48 3 -49 0 -68 -1 -42 -3z"/>
<path d="M1988 2043 c7 -3 16 -2 19 1 4 3 -2 6 -13 5 -11 0 -14 -3 -6 -6z"/>
<path d="M1938 2033 c6 -2 18 -2 25 0 6 3 1 5 -13 5 -14 0 -19 -2 -12 -5z"/>
<path d="M1888 2023 c7 -3 16 -2 19 1 4 3 -2 6 -13 5 -11 0 -14 -3 -6 -6z"/>
<path d="M1609 1963 c-13 -16 -12 -17 4 -4 9 7 17 15 17 17 0 8 -8 3 -21 -13z"/>
<path d="M2110 1969 c-13 -5 -58 -16 -100 -24 -41 -7 -62 -14 -47 -14 38 -1
165 28 172 40 7 11 7 11 -25 -2z"/>
<path d="M1126 1941 c17 -10 40 -22 52 -25 12 -4 22 -10 22 -14 0 -4 12 -8 28
-9 15 -1 57 -6 95 -10 37 -5 67 -6 67 -1 0 4 -18 8 -40 8 -58 0 -139 19 -192
46 -56 29 -75 32 -32 5z"/>
<path d="M960 1938 c0 -7 11 -37 25 -66 14 -30 22 -59 18 -65 -3 -6 -1 -7 5
-3 6 4 50 -2 96 -13 69 -17 116 -20 255 -19 l171 1 0 26 c0 14 -5 33 -10 41
-7 10 -8 4 -4 -20 l6 -36 -168 -2 c-115 -1 -186 3 -224 12 -30 8 -68 17 -83
20 -22 5 -34 18 -53 62 -13 30 -24 56 -24 59 0 2 28 6 63 8 l62 3 -67 2 c-49
1 -68 -2 -68 -10z"/>
<path d="M1850 1925 c0 -6 16 -9 40 -7 22 2 40 5 40 7 0 2 -18 5 -40 7 -24 2
-40 -1 -40 -7z"/>
<path d="M1528 1903 c6 -2 18 -2 25 0 6 3 1 5 -13 5 -14 0 -19 -2 -12 -5z"/>
<path d="M1849 1879 c-13 -26 -6 -301 11 -396 5 -29 12 -95 16 -147 l7 -95
-30 -29 c-22 -22 -43 -31 -84 -37 -60 -8 -100 -24 -62 -25 54 0 128 24 155 50
24 25 28 36 28 89 0 33 -6 111 -14 173 -29 231 -29 226 -4 231 23 4 23 4 1 6
-20 1 -21 6 -22 83 0 46 4 87 11 95 6 7 8 16 5 19 -3 3 -11 -5 -18 -17z"/>
<path d="M1180 1865 c13 -14 26 -25 28 -25 3 0 -5 11 -18 25 -13 14 -26 25
-28 25 -3 0 5 -11 18 -25z"/>
<path d="M1410 1880 c-10 -6 -2 -7 25 -3 49 7 58 13 19 13 -16 0 -36 -5 -44
-10z"/>
<path d="M1224 1866 c11 -9 27 -16 35 -15 14 0 14 1 1 6 -8 3 -24 10 -35 15
-20 9 -20 9 -1 -6z"/>
<path d="M1730 1870 c8 -5 26 -10 39 -10 32 0 24 6 -19 14 -25 4 -31 3 -20 -4z"/>
<path d="M1898 1863 c6 -2 18 -2 25 0 6 3 1 5 -13 5 -14 0 -19 -2 -12 -5z"/>
<path d="M2098 1863 c7 -3 16 -2 19 1 4 3 -2 6 -13 5 -11 0 -14 -3 -6 -6z"/>
<path d="M1352 1848 c-7 -7 -33 -15 -60 -19 l-47 -6 41 -2 c28 -1 49 5 65 19
13 10 22 19 19 20 -4 0 -11 -5 -18 -12z"/>
<path d="M2003 1853 c15 -2 37 -2 50 0 12 2 0 4 -28 4 -27 0 -38 -2 -22 -4z"/>
<path d="M2127 1826 c-9 -13 -35 -33 -59 -44 -35 -17 -57 -20 -123 -17 l-80 4
83 -10 c73 -8 87 -7 120 10 39 20 89 67 80 76 -3 3 -12 -5 -21 -19z"/>
<path d="M2000 1830 c-9 -6 -10 -10 -3 -10 6 0 15 5 18 10 8 12 4 12 -15 0z"/>
<path d="M2019 1813 c-13 -16 -12 -17 4 -4 9 7 17 15 17 17 0 8 -8 3 -21 -13z"/>
<path d="M1346 1381 c-46 -47 -45 -73 4 -109 l35 -26 -32 35 c-18 19 -33 40
-33 47 0 6 16 28 36 47 20 20 34 38 32 40 -2 3 -21 -13 -42 -34z"/>
<path d="M903 1255 c-17 -7 -36 -22 -41 -32 -5 -10 -12 -76 -15 -148 -4 -86
-3 -111 3 -75 4 30 9 84 9 120 2 95 7 106 59 128 26 11 40 21 32 21 -8 0 -29
-6 -47 -14z"/>
<path d="M1500 1239 c30 -5 72 -21 93 -35 22 -14 41 -23 44 -20 3 2 -14 17
-37 32 -30 20 -56 28 -98 30 l-57 3 55 -10z"/>
<path d="M1611 1034 c0 -11 3 -14 6 -6 3 7 2 16 -1 19 -3 4 -6 -2 -5 -13z"/>
<path d="M1060 975 c0 -11 140 -74 188 -84 29 -6 126 -11 215 -12 138 0 284
-13 222 -19 -11 -1 -15 -4 -9 -6 6 -3 23 2 38 10 l28 14 -54 8 c-29 4 -121 7
-205 6 -186 -3 -255 7 -350 52 -40 19 -73 33 -73 31z"/>
<path d="M1288 853 c7 -3 16 -2 19 1 4 3 -2 6 -13 5 -11 0 -14 -3 -6 -6z"/>
<path d="M1353 843 c15 -2 39 -2 55 0 15 2 2 4 -28 4 -30 0 -43 -2 -27 -4z"/>
<path d="M1628 843 c6 -2 18 -2 25 0 6 3 1 5 -13 5 -14 0 -19 -2 -12 -5z"/>
<path d="M1714 763 c-9 -14 -33 -17 -180 -19 -122 -1 -178 2 -201 12 -38 15
-44 11 -10 -8 22 -12 341 -22 380 -12 9 3 22 14 27 25 13 23 -1 26 -16 2z"/>
</g>
</svg>
